<?xml version="1.0" standalone="no"?>
<!DOCTYPE svg PUBLIC "-//W3C//DTD SVG 20010904//EN"
 "http://www.w3.org/TR/2001/REC-SVG-20010904/DTD/svg10.dtd">
<svg version="1.0" xmlns="http://www.w3.org/2000/svg"
 width="260.000000pt" height="260.000000pt" viewBox="0 0 260.000000 260.000000"
 preserveAspectRatio="xMidYMid meet">
<metadata>
Created by potrace 1.14, written by Peter Selinger 2001-2017
</metadata>
<g transform="translate(0.000000,260.000000) scale(0.100000,-0.100000)"
fill="#000000" stroke="none">
<path d="M0 1300 l0 -1300 1300 0 1300 0 0 1300 0 1300 -1300 0 -1300 0 0
-1300z m1345 939 c4 -5 142 -400 306 -877 215 -622 306 -874 323 -890 28 -29
80 -41 169 -42 l67 0 0 -40 0 -40 -365 0 -365 0 0 39 0 38 71 7 c85 8 137 30
145 61 5 19 -120 410 -141 446 -4 5 -138 9 -335 9 -303 0 -328 -1 -335 -17 -4
-10 -34 -94 -67 -188 -54 -155 -58 -173 -49 -207 16 -51 60 -85 131 -100 l60
-12 0 -38 0 -38 -285 0 -285 0 0 39 0 40 57 7 c84 10 171 59 205 114 15 25
154 412 309 860 155 448 286 821 292 828 12 15 83 16 92 1z"/>
<path d="M1069 1467 l-145 -422 294 -3 c162 -1 296 -1 298 0 4 5 -290 848
-296 848 -3 0 -71 -190 -151 -423z"/>
</g>
</svg>
